<svg width="16" height="17" viewBox="0 0 16 17" fill="none" xmlns="http://www.w3.org/2000/svg">
<g id="Icon-left">
<path id="icon" d="M2.9267 3.2002L3.28373 2.84317C4.06477 2.06212 5.3311 2.06212 6.11215 2.84317L6.7314 3.46242C7.36803 4.09905 7.50081 5.08259 7.05577 5.86524L7.01918 5.9296C6.66263 6.55663 6.66432 7.33255 7.08721 7.91689C7.29791 8.20801 7.53593 8.50959 7.76207 8.73573C7.98821 8.96187 8.28978 9.19989 8.58091 9.41058C9.16525 9.83347 9.94117 9.83517 10.5682 9.47862L10.6326 9.44203C11.4152 8.99699 12.3987 9.12976 13.0354 9.76639L13.6546 10.3856C14.4357 11.1667 14.4357 12.433 13.6546 13.2141L13.2976 13.5711C12.9225 13.9462 12.4116 14.1551 11.8958 14.0312C10.7936 13.7663 8.66971 12.9432 6.11215 10.3856C3.55459 7.82809 2.73151 5.70415 2.46662 4.60196C2.34267 4.08622 2.55163 3.57527 2.9267 3.2002Z" fill="white"/>
</g>
</svg>
