<svg width="50" height="51" viewBox="0 0 50 51" fill="none" xmlns="http://www.w3.org/2000/svg">
<path d="M24.4971 36.4551C24.0273 34.3381 22.6802 30.5187 20.5065 28.7131C19.8049 28.4549 19.054 28.0954 18.4028 27.7404C19.173 27.8337 19.8747 28.1883 20.5065 28.7131C22.6469 29.5009 24.3278 29.3452 21.3135 25.2382C22.587 26.6475 25.2248 30.0528 25.5887 32.3997L24.4971 36.4551Z" fill="#FF8B56"/>
<path d="M32.1453 28.319C27.9737 31.4232 26.7131 38.5614 26.6402 42.3265L24.3618 37.1562C24.5721 30.1456 29.2984 25.5303 31.6353 24.0989C24.2844 30.709 27.8992 30.0859 32.1453 28.319C32.9903 27.6902 33.9547 27.227 35.0529 26.9908C34.1344 27.4446 33.1231 27.9122 32.1453 28.319Z" fill="#FF8B56"/>
<path d="M24.0989 47.672C25.1321 44.9341 24.7492 39.0216 16.4073 35.0236C15.1643 34.5989 13.8714 34.0789 12.7067 33.5632C14.0865 34.0096 15.3151 34.5002 16.4073 35.0236C21.4304 36.74 25.6373 36.8989 17.2636 28.9186C21.0902 31.8397 28.3929 39.8552 26.9908 48.5483L24.0989 47.672Z" fill="#FF8B56"/>
<path d="M11.3922 50.3009C13.8751 48.9572 20.1379 47.1987 25.3258 50.9143C23.0181 50.1256 17.0007 48.8987 11.3922 50.3009Z" fill="url(#paint0_linear_82_2538)"/>
<path d="M23.9236 47.4968C17.3337 45.3235 12.473 48.4023 10.8664 50.2134C17.877 47.2689 20.5936 48.636 23.9236 49.6876C27.2536 50.7392 38.9088 51.0313 42.4141 50.2134C34.1766 50.2134 32.1611 50.2134 23.9236 47.4968Z" fill="url(#paint1_linear_82_2538)"/>
<ellipse cx="19.8049" cy="34.352" rx="1.22685" ry="1.22685" fill="#FF8B56"/>
<circle cx="29.4444" cy="28.0423" r="0.876324" fill="#FF8B56"/>
<circle cx="21.5576" cy="27.6918" r="0.701059" fill="#FF8B56"/>
<path d="M24.5625 25.8672C23.5783 24.806 22.2283 22.0359 24.7022 19.4454C25.7043 20.4533 27.0792 23.1486 24.5625 25.8672Z" fill="url(#paint2_linear_82_2538)"/>
<path d="M17.1255 22.9588C15.9839 23.3262 13.431 23.37 12.352 20.6051C13.4598 20.2055 15.9653 20.1169 17.1255 22.9588Z" fill="url(#paint3_linear_82_2538)"/>
<path d="M20.239 17.95C19.043 17.8631 16.6596 16.9473 16.6949 13.9796C17.8716 14.024 20.2279 14.8804 20.239 17.95Z" fill="url(#paint4_linear_82_2538)"/>
<path d="M24.518 16.5004C23.7025 15.6211 22.584 13.3259 24.6338 11.1795C25.4641 12.0146 26.6034 14.2479 24.518 16.5004Z" fill="url(#paint5_linear_82_2538)"/>
<path d="M29.2019 18.0802C29.0278 16.8936 29.406 14.3685 32.3111 13.7607C32.5223 14.9192 32.1963 17.405 29.2019 18.0802Z" fill="url(#paint6_linear_82_2538)"/>
<path d="M31.9923 22.5317C32.5116 21.4507 34.2371 19.5688 36.9854 20.6893C36.5128 21.7679 34.8524 23.6464 31.9923 22.5317Z" fill="url(#paint7_linear_82_2538)"/>
<path d="M18.1459 20.1795C17.3266 20.2923 15.5875 20.0163 15.1858 18.0093C15.986 17.8705 17.6983 18.1104 18.1459 20.1795Z" fill="url(#paint8_linear_82_2538)"/>
<path d="M22.305 16.8653C21.5827 16.4623 20.3599 15.1953 21.247 13.3506C21.9695 13.7214 23.1927 14.9434 22.305 16.8653Z" fill="url(#paint9_linear_82_2538)"/>
<path d="M26.9577 16.8357C26.5906 16.0946 26.3006 14.3577 28.0764 13.3399C28.4619 14.0548 28.7778 15.7547 26.9577 16.8357Z" fill="url(#paint10_linear_82_2538)"/>
<path d="M30.9918 19.9382C31.102 19.1185 31.8328 17.5164 33.8742 17.6657C33.794 18.4739 33.1053 20.0598 30.9918 19.9382Z" fill="url(#paint11_linear_82_2538)"/>
<path d="M32.0875 25.4896C32.5813 24.8261 33.9971 23.7792 35.7102 24.8994C35.2483 25.5674 33.877 26.6206 32.0875 25.4896Z" fill="url(#paint12_linear_82_2538)"/>
<path d="M17.2405 25.9089C16.6696 26.5073 15.1367 27.3739 13.5729 26.0532C14.1128 25.4465 15.6022 24.5683 17.2405 25.9089Z" fill="url(#paint13_linear_82_2538)"/>
<path d="M12.0933 32.3563C11.0224 34.3159 7.6303 37.6471 2.62899 35.2957C3.61304 33.3361 6.88358 30.0049 12.0933 32.3563Z" fill="url(#paint14_linear_82_2538)"/>
<path d="M10.1738 23.9699C8.41041 25.3399 3.97132 27.0423 0.322462 22.8916C2.00627 21.4869 6.33388 19.7361 10.1738 23.9699Z" fill="url(#paint15_linear_82_2538)"/>
<path d="M13.2442 15.9108C11.0628 16.3882 6.32322 16.0137 4.81673 10.6964C6.94123 10.1535 11.601 10.4363 13.2442 15.9108Z" fill="url(#paint16_linear_82_2538)"/>
<path d="M19.321 11.2151C17.134 10.764 12.9566 8.49404 13.743 3.02376C15.9047 3.3919 20.0466 5.54556 19.321 11.2151Z" fill="url(#paint17_linear_82_2538)"/>
<path d="M31.0767 11.454C30.6949 9.25376 31.2759 4.53507 36.6538 3.26195C37.1035 5.4081 36.6177 10.0511 31.0767 11.454Z" fill="url(#paint18_linear_82_2538)"/>
<path d="M37.3305 16.6673C37.7625 14.4765 39.9959 10.2794 45.4729 11.0181C45.1236 13.1829 43.0061 17.3434 37.3305 16.6673Z" fill="url(#paint19_linear_82_2538)"/>
<path d="M40.1722 24.3947C41.4581 22.569 45.2055 19.6431 49.9084 22.5456C48.7089 24.3812 45.0823 27.3208 40.1722 24.3947Z" fill="url(#paint20_linear_82_2538)"/>
<path d="M38.3039 32.0772C40.4295 31.3929 45.1832 31.3115 47.1923 36.4599C45.1297 37.2039 40.4642 37.369 38.3039 32.0772Z" fill="url(#paint21_linear_82_2538)"/>
<path d="M25.2514 0.249883C26.7842 1.87389 28.9042 6.12938 25.1223 10.1593C23.5627 8.61784 21.4052 4.47796 25.2514 0.249883Z" fill="url(#paint22_linear_82_2538)"/>
<path d="M10.5162 28.3252C9.59248 29.4396 7.02231 31.1395 4.13109 29.0249C4.99953 27.8998 7.49236 26.1849 10.5162 28.3252Z" fill="url(#paint23_linear_82_2538)"/>
<path d="M11.0246 20.0802C9.75074 20.7674 6.7309 21.3807 4.84236 18.337C6.06901 17.6192 9.02277 16.9629 11.0246 20.0802Z" fill="url(#paint24_linear_82_2538)"/>
<path d="M15.6785 13.2197C14.2314 13.1904 11.301 12.2373 11.1561 8.65818C12.5772 8.63747 15.4712 9.52077 15.6785 13.2197Z" fill="url(#paint25_linear_82_2538)"/>
<path d="M22.1761 10.3493C20.9246 9.62218 18.8238 7.36783 20.4322 4.16724C21.6852 4.83808 23.7881 7.01367 22.1761 10.3493Z" fill="url(#paint26_linear_82_2538)"/>
<path d="M28.0943 10.3699C27.452 9.0728 26.9444 6.0334 30.0521 4.25222C30.7267 5.50318 31.2795 8.47804 28.0943 10.3699Z" fill="url(#paint27_linear_82_2538)"/>
<path d="M34.3462 13.2462C34.4259 11.801 35.4807 8.90573 39.0627 8.88581C39.0338 10.3068 38.05 13.1682 34.3462 13.2462Z" fill="url(#paint28_linear_82_2538)"/>
<path d="M39.1206 20.1251C39.9016 18.9065 42.2454 16.906 45.3728 18.6525C44.648 19.875 42.3827 21.881 39.1206 20.1251Z" fill="url(#paint29_linear_82_2538)"/>
<path d="M39.5609 28.6922C40.596 27.6805 43.3298 26.2585 45.9841 28.6638C45.0028 29.6919 42.3444 31.1369 39.5609 28.6922Z" fill="url(#paint30_linear_82_2538)"/>
<defs>
<linearGradient id="paint0_linear_82_2538" x1="18.359" y1="48.687" x2="18.359" y2="50.9143" gradientUnits="userSpaceOnUse">
<stop stop-color="#47FF85"/>
<stop offset="1" stop-color="#00A351"/>
</linearGradient>
<linearGradient id="paint1_linear_82_2538" x1="26.6402" y1="46.7493" x2="26.6402" y2="50.6846" gradientUnits="userSpaceOnUse">
<stop stop-color="#47FF85"/>
<stop offset="1" stop-color="#00A351"/>
</linearGradient>
<linearGradient id="paint2_linear_82_2538" x1="26.0328" y1="23.1249" x2="23.2319" y2="22.1877" gradientUnits="userSpaceOnUse">
<stop stop-color="#47FF85"/>
<stop offset="1" stop-color="#00A351"/>
</linearGradient>
<linearGradient id="paint3_linear_82_2538" x1="15.581" y1="20.8944" x2="13.8965" y2="22.6695" gradientUnits="userSpaceOnUse">
<stop stop-color="#47FF85"/>
<stop offset="1" stop-color="#00A351"/>
</linearGradient>
<linearGradient id="paint4_linear_82_2538" x1="19.5804" y1="15.4574" x2="17.3535" y2="16.4722" gradientUnits="userSpaceOnUse">
<stop stop-color="#47FF85"/>
<stop offset="1" stop-color="#00A351"/>
</linearGradient>
<linearGradient id="paint5_linear_82_2538" x1="25.7363" y1="14.2282" x2="23.4156" y2="13.4517" gradientUnits="userSpaceOnUse">
<stop stop-color="#47FF85"/>
<stop offset="1" stop-color="#00A351"/>
</linearGradient>
<linearGradient id="paint6_linear_82_2538" x1="31.4929" y1="16.8976" x2="30.0201" y2="14.9432" gradientUnits="userSpaceOnUse">
<stop stop-color="#47FF85"/>
<stop offset="1" stop-color="#00A351"/>
</linearGradient>
<linearGradient id="paint7_linear_82_2538" x1="34.5529" y1="22.8325" x2="34.4248" y2="20.3886" gradientUnits="userSpaceOnUse">
<stop stop-color="#47FF85"/>
<stop offset="1" stop-color="#00A351"/>
</linearGradient>
<linearGradient id="paint8_linear_82_2538" x1="17.3442" y1="18.5924" x2="15.9875" y2="19.5963" gradientUnits="userSpaceOnUse">
<stop stop-color="#47FF85"/>
<stop offset="1" stop-color="#00A351"/>
</linearGradient>
<linearGradient id="paint9_linear_82_2538" x1="22.6198" y1="15.1153" x2="20.9321" y2="15.1006" gradientUnits="userSpaceOnUse">
<stop stop-color="#47FF85"/>
<stop offset="1" stop-color="#00A351"/>
</linearGradient>
<linearGradient id="paint10_linear_82_2538" x1="28.2083" y1="15.5719" x2="26.8258" y2="14.6038" gradientUnits="userSpaceOnUse">
<stop stop-color="#47FF85"/>
<stop offset="1" stop-color="#00A351"/>
</linearGradient>
<linearGradient id="paint11_linear_82_2538" x1="32.7354" y1="19.5898" x2="32.1306" y2="18.0141" gradientUnits="userSpaceOnUse">
<stop stop-color="#47FF85"/>
<stop offset="1" stop-color="#00A351"/>
</linearGradient>
<linearGradient id="paint12_linear_82_2538" x1="33.7814" y1="26.0302" x2="34.0163" y2="24.3589" gradientUnits="userSpaceOnUse">
<stop stop-color="#47FF85"/>
<stop offset="1" stop-color="#00A351"/>
</linearGradient>
<linearGradient id="paint13_linear_82_2538" x1="15.6251" y1="25.166" x2="15.1883" y2="26.7962" gradientUnits="userSpaceOnUse">
<stop stop-color="#47FF85"/>
<stop offset="1" stop-color="#00A351"/>
</linearGradient>
<linearGradient id="paint14_linear_82_2538" x1="7.36114" y1="31.5475" x2="7.36114" y2="36.1044" gradientUnits="userSpaceOnUse">
<stop stop-color="#47FF85"/>
<stop offset="1" stop-color="#00A351"/>
</linearGradient>
<linearGradient id="paint15_linear_82_2538" x1="6.15668" y1="21.3413" x2="4.33963" y2="25.5202" gradientUnits="userSpaceOnUse">
<stop stop-color="#47FF85"/>
<stop offset="1" stop-color="#00A351"/>
</linearGradient>
<linearGradient id="paint16_linear_82_2538" x1="10.75" y1="11.8088" x2="7.31091" y2="14.7984" gradientUnits="userSpaceOnUse">
<stop stop-color="#47FF85"/>
<stop offset="1" stop-color="#00A351"/>
</linearGradient>
<linearGradient id="paint17_linear_82_2538" x1="18.7109" y1="6.45329" x2="14.3531" y2="7.7856" gradientUnits="userSpaceOnUse">
<stop stop-color="#47FF85"/>
<stop offset="1" stop-color="#00A351"/>
</linearGradient>
<linearGradient id="paint18_linear_82_2538" x1="35.2836" y1="9.14108" x2="32.4469" y2="5.57483" gradientUnits="userSpaceOnUse">
<stop stop-color="#47FF85"/>
<stop offset="1" stop-color="#00A351"/>
</linearGradient>
<linearGradient id="paint19_linear_82_2538" x1="42.0868" y1="16.0157" x2="40.7165" y2="11.6697" gradientUnits="userSpaceOnUse">
<stop stop-color="#47FF85"/>
<stop offset="1" stop-color="#00A351"/>
</linearGradient>
<linearGradient id="paint20_linear_82_2538" x1="44.7824" y1="25.734" x2="45.2983" y2="21.2064" gradientUnits="userSpaceOnUse">
<stop stop-color="#47FF85"/>
<stop offset="1" stop-color="#00A351"/>
</linearGradient>
<linearGradient id="paint21_linear_82_2538" x1="41.1797" y1="35.9213" x2="44.3165" y2="32.6158" gradientUnits="userSpaceOnUse">
<stop stop-color="#47FF85"/>
<stop offset="1" stop-color="#00A351"/>
</linearGradient>
<linearGradient id="paint22_linear_82_2538" x1="23.0199" y1="4.5005" x2="27.3538" y2="5.90865" gradientUnits="userSpaceOnUse">
<stop stop-color="#47FF85"/>
<stop offset="1" stop-color="#00A351"/>
</linearGradient>
<linearGradient id="paint23_linear_82_2538" x1="7.60541" y1="27.2254" x2="7.04185" y2="30.1247" gradientUnits="userSpaceOnUse">
<stop stop-color="#47FF85"/>
<stop offset="1" stop-color="#00A351"/>
</linearGradient>
<linearGradient id="paint24_linear_82_2538" x1="8.73778" y1="17.9701" x2="7.12917" y2="20.4471" gradientUnits="userSpaceOnUse">
<stop stop-color="#47FF85"/>
<stop offset="1" stop-color="#00A351"/>
</linearGradient>
<linearGradient id="paint25_linear_82_2538" x1="14.7272" y1="10.257" x2="12.1074" y2="11.6208" gradientUnits="userSpaceOnUse">
<stop stop-color="#47FF85"/>
<stop offset="1" stop-color="#00A351"/>
</linearGradient>
<linearGradient id="paint26_linear_82_2538" x1="22.7804" y1="7.29692" x2="19.8279" y2="7.2196" gradientUnits="userSpaceOnUse">
<stop stop-color="#47FF85"/>
<stop offset="1" stop-color="#00A351"/>
</linearGradient>
<linearGradient id="paint27_linear_82_2538" x1="30.2829" y1="8.15808" x2="27.8635" y2="6.464" gradientUnits="userSpaceOnUse">
<stop stop-color="#47FF85"/>
<stop offset="1" stop-color="#00A351"/>
</linearGradient>
<linearGradient id="paint28_linear_82_2538" x1="37.3402" y1="12.3989" x2="36.0687" y2="9.73311" gradientUnits="userSpaceOnUse">
<stop stop-color="#47FF85"/>
<stop offset="1" stop-color="#00A351"/>
</linearGradient>
<linearGradient id="paint29_linear_82_2538" x1="42.1437" y1="20.862" x2="42.3497" y2="17.9156" gradientUnits="userSpaceOnUse">
<stop stop-color="#47FF85"/>
<stop offset="1" stop-color="#00A351"/>
</linearGradient>
<linearGradient id="paint30_linear_82_2538" x1="42.3407" y1="30.0902" x2="43.2043" y2="27.2657" gradientUnits="userSpaceOnUse">
<stop stop-color="#47FF85"/>
<stop offset="1" stop-color="#00A351"/>
</linearGradient>
</defs>
</svg>
