<svg width="20" height="20" viewBox="0 0 20 20" fill="none" xmlns="http://www.w3.org/2000/svg">
<g id="search-02" clip-path="url(#clip0_82_2581)">
<path id="Vector" d="M11.6667 11.6667L13.75 13.75" stroke="#141B34" stroke-width="1.5" stroke-linejoin="round"/>
<path id="Vector_2" d="M13.6944 15.4377C13.213 14.9563 13.213 14.1758 13.6944 13.6944C14.1757 13.213 14.9562 13.213 15.4377 13.6944L17.9722 16.229C18.4537 16.7104 18.4537 17.4909 17.9722 17.9723C17.4909 18.4537 16.7104 18.4537 16.229 17.9723L13.6944 15.4377Z" stroke="#141B34" stroke-width="1.5" stroke-linecap="round"/>
<path id="Vector_3" d="M13.3333 7.50002C13.3333 4.27836 10.7217 1.66669 7.49999 1.66669C4.27833 1.66669 1.66666 4.27836 1.66666 7.50002C1.66666 10.7217 4.27833 13.3334 7.49999 13.3334C10.7217 13.3334 13.3333 10.7217 13.3333 7.50002Z" stroke="#141B34" stroke-width="1.5" stroke-linejoin="round"/>
</g>
<defs>
<clipPath id="clip0_82_2581">
<rect width="20" height="20" fill="white"/>
</clipPath>
</defs>
</svg>
